PathFileType	3	(X/Y/Z)	.\ExampleData\generated\LevelGround_ccw_fast_01.trc
DataRate	CameraRate	NumFrames	NumMarkers	Units	OrigDataRate	OrigDataStartFrame	OrigNumFrames
200.0	200.0	11	28	mm	200.0	2232	5952	
Frame#	Time	L_ASIS	R_ASIS	L_PSIS	R_PSIS	R_Thigh_Upper	R_Knee_Lat	R_Thigh_Front	R_Thigh_Rear	L_Thigh_Upper	L_Thigh_Front	L_Thigh_Rear	L_Knee_Lat	L_Shank_Upper	L_Shank_Front	L_Shank_Rear	L_Ankle_Lat	R_Shank_Upper	R_Shank_Rear	R_Shank_Front	R_Ankle_Lat	R_Heel	R_Toe_Tip	R_Toe_Med	R_Toe_Lat	L_Heel	L_Toe_Tip	L_Toe_Med	L_Toe_Lat	
		X1	Y1	Z1	X2	Y2	Z2	X3	Y3	Z3	X4	Y4	Z4	X5	Y5	Z5	X6	Y6	Z6	X7	Y7	Z7	X8	Y8	Z8	X9	Y9	Z9	X10	Y10	Z10	X11	Y11	Z11	X12	Y12	Z12	X13	Y13	Z13	X14	Y14	Z14	X15	Y15	Z15	X16	Y16	Z16	X17	Y17	Z17	X18	Y18	Z18	X19	Y19	Z19	X20	Y20	Z20	X21	Y21	Z21	X22	Y22	Z22	X23	Y23	Z23	X24	Y24	Z24	X25	Y25	Z25	X26	Y26	Z26	X27	Y27	Z27	X28	Y28	Z28	
2232	11.16	-647.00694	1011.6025	-907.7268	-527.84773	1019.8264	-665.25559	-777.47892	1057.933	-768.32422	-720.71162	1068.95	-658.6031	-566.0805	833.27195	-570.30842	-562.40148	510.60867	-592.8869	-510.27657	781.2917	-600.8695	-567.19107	765.6261	-564.99624	-749.08719	860.02012	-914.8414	-716.05806	787.41179	-929.65626	-780.6755	795.48844	-888.43309	-738.06981	488.98219	-873.25506	-812.95978	359.63633	-870.24428	-780.09887	302.71411	-870.72961	-822.69861	292.1207	-847.35563	-785.48859	69.471449	-832.93839	-604.12702	371.78009	-544.01638	-635.33363	311.53927	-550.90638	-575.54165	309.40459	-560.19727	-598.84143	69.074731	-579.09258	-668.67755	29.986582	-595.59585	-465.58634	50.13015	-670.20475	-473.8694	25.559286	-696.97041	-486.15302	24.564056	-578.08231	-822.47527	31.594651	-769.79269	-629.1847	44.338854	-873.61293	-612.49458	21.975957	-849.67479	-712.75319	15.347635	-917.87731
2233	11.165	-647.0495	1011.6069	-907.71541	-527.8559	1019.8331	-665.26093	-777.51123	1057.9344	-768.28725	-720.83885	1069.0076	-658.49736	-566.07294	833.27611	-570.30726	-562.39696	510.6119	-592.88369	-510.26702	781.30257	-600.87762	-567.18146	765.62855	-564.99598	-749.13201	860.02234	-914.82574	-716.12907	787.415	-929.64026	-780.70911	795.45208	-888.31146	-738.09674	488.98482	-873.24476	-812.97672	359.63687	-870.2371	-780.11791	302.71169	-870.71753	-822.71523	292.12034	-847.3375	-785.48916	69.472339	-832.93667	-604.12172	371.78243	-544.0145	-635.32757	311.54266	-550.90098	-575.5247	309.40973	-560.18725	-598.84031	69.077273	-579.09273	-668.67989	30.011115	-595.57184	-465.58591	50.130526	-670.2056	-473.86526	25.563326	-696.97514	-486.15098	24.564743	-578.08222	-822.47305	31.58838	-769.79706	-629.18603	44.342976	-873.61323	-612.4946	21.978984	-849.67605	-712.75993	15.344485	-917.87886
2234	11.17	-647.0908	1011.6104	-907.70397	-527.86567	1019.8392	-665.26471	-777.54598	1057.9353	-768.25122	-720.97274	1069.0679	-658.39028	-566.06662	833.28044	-570.30499	-562.39599	510.61232	-592.87923	-510.26003	781.31254	-600.88517	-567.17302	765.63159	-564.99503	-749.1755	860.02494	-914.81205	-716.1976	787.41811	-929.62562	-780.7465	795.41339	-888.19141	-738.12424	488.98786	-873.23484	-812.99429	359.63777	-870.23009	-780.1373	302.70971	-870.70528	-822.73264	292.119	-847.31843	-785.48986	69.473278	-832.93526	-604.11739	371.78483	-544.01144	-635.32245	311.54554	-550.895	-575.51086	309.41393	-560.17759	-598.83873	69.080011	-579.09198	-668.68263	30.037704	-595.54623	-465.58512	50.131239	-670.20539	-473.86227	25.567103	-696.97915	-486.14875	24.564562	-578.08181	-822.47092	31.582705	-769.80221	-629.18736	44.347082	-873.6134	-612.49485	21.981746	-849.6771	-712.76461	15.344092	-917.88359
2235	11.175	-647.13059	1011.6126	-907.69245	-527.87785	1019.8445	-665.26638	-777.58092	1057.9366	-768.2171	-721.11641	1069.132	-658.28059	-566.06218	833.28474	-570.30161	-562.39848	510.60988	-592.8733	-510.25598	781.32148	-600.89178	-567.16644	765.63522	-564.99326	-749.21716	860.02779	-914.80022	-716.26245	787.42085	-929.61231	-780.78942	795.37372	-888.07917	-738.15204	488.99119	-873.22546	-813.01247	359.63916	-870.22307	-780.15677	302.70816	-870.69306	-822.75082	292.11681	-847.2987	-785.49083	69.474068	-832.93412	-604.11421	371.787	-544.00706	-635.31834	311.5475	-550.8884	-575.50002	309.41689	-560.16804	-598.83684	69.082707	-579.09036	-668.68563	30.0651	-595.52004	-465.58408	50.132193	-670.20407	-473.86075	25.570465	-696.98242	-486.14646	24.563392	-578.08112	-822.46896	31.577657	-769.80797	-629.18868	44.351018	-873.61337	-612.49541	21.983964	-849.67786	-712.76634	15.347589	-917.89241
2236	11.18	-647.16851	1011.6134	-907.6809	-527.89324	1019.8487	-665.26553	-777.61412	1057.9387	-768.18576	-721.27064	1069.2002	-658.16836	-566.06046	833.28878	-570.29709	-562.40408	510.6049	-592.86557	-510.25527	781.32925	-600.89702	-567.16253	765.63944	-564.99059	-749.25636	860.03072	-914.79009	-716.32242	787.42301	-929.60022	-780.83975	795.33471	-887.982	-738.17978	488.99465	-873.21681	-813.03116	359.64098	-870.21603	-780.17602	302.7069	-870.68112	-822.76962	292.11388	-847.27856	-785.49218	69.47451	-832.93325	-604.1124	371.78877	-544.00129	-635.3154	311.5483	-550.8812	-575.49215	309.4185	-560.1584	-598.83485	69.08515	-579.08801	-668.68874	30.091919	-595.49445	-465.58292	50.133328	-670.20172	-473.86098	25.573316	-696.9847	-486.14428	24.561262	-578.0802	-822.46734	31.573254	-769.81398	-629.19	44.354607	-873.61312	-612.49635	21.98542	-849.67834	-712.76438	15.355852	-917.90604
2237	11.185	-647.20409	1011.6129	-907.66941	-527.91259	1019.8518	-665.26181	-777.64394	1057.9419	-768.15796	-721.43015	1069.2695	-658.05715	-566.06231	833.29233	-570.29131	-562.4125	510.5978	-592.85579	-510.25832	781.33577	-600.9004	-567.16213	765.6442	-564.98695	-749.29235	860.03352	-914.78152	-716.37645	787.42449	-929.58941	-780.89823	795.29808	-887.90567	-738.20701	488.99802	-873.20909	-813.05016	359.64308	-870.2091	-780.19476	302.70574	-870.66974	-822.78885	292.11031	-847.25819	-785.49395	69.474431	-832.93271	-604.11221	371.79002	-543.99418	-635.31391	311.5479	-550.8735	-575.48721	309.41883	-560.14846	-598.83303	69.087218	-579.08519	-668.69185	30.117021	-595.47044	-465.58179	50.134664	-670.19846	-473.86319	25.575672	-696.98556	-486.14238	24.558378	-578.07901	-822.46641	31.569642	-769.81964	-629.19136	44.357669	-873.61264	-612.49772	21.985991	-849.67855	-712.75839	15.36911	-917.92456
2238	11.19	-647.2367	1011.6112	-907.6581	-527.93648	1019.854	-665.25493	-777.66916	1057.9464	-768.13429	-721.5859	1069.3354	-657.95272	-566.06854	833.29522	-570.28411	-562.42364	510.58888	-592.84385	-510.26557	781.34101	-600.9014	-567.16611	765.64937	-564.98226	-749.3243	860.03605	-914.77441	-716.42356	787.42533	-929.58006	-780.96277	795.26499	-887.85107	-738.23326	489.00106	-873.20243	-813.06923	359.64528	-870.20244	-780.21265	302.70451	-870.65919	-822.80821	292.10627	-847.23775	-785.49617	69.473699	-832.93257	-604.11388	371.79075	-543.98585	-635.31422	311.54647	-550.86547	-575.48514	309.41812	-560.13807	-598.83165	69.088888	-579.08219	-668.69488	30.13968	-595.44864	-465.5808	50.136329	-670.19437	-473.86755	25.577641	-696.9845	-486.14091	24.555125	-578.07744	-822.46665	31.567004	-769.8242	-629.1928	44.360049	-873.61193	-612.49949	21.985682	-849.67847	-712.74846	15.386727	-917.94725
2239	11.195	-647.26567	1011.6087	-907.64707	-527.9652	1019.8557	-665.24461	-777.68892	1057.9523	-768.11525	-721.73044	1069.3942	-657.85996	-566.08002	833.2973	-570.27532	-562.43754	510.5785	-592.82987	-510.27745	781.345	-600.8995	-567.17535	765.65481	-564.97636	-749.35136	860.03819	-914.76884	-716.4629	787.42556	-929.57239	-781.02877	795.23576	-887.81414	-738.25801	489.00357	-873.19692	-813.08805	359.64739	-870.19632	-780.22933	302.70308	-870.64978	-822.82739	292.10196	-847.21727	-785.49891	69.472227	-832.9329	-604.11766	371.79106	-543.97648	-635.31675	311.54434	-550.85731	-575.48601	309.41667	-560.12722	-598.83095	69.090182	-579.07931	-668.69778	30.159543	-595.42944	-465.57999	50.138522	-670.18953	-473.87421	25.579314	-696.98117	-486.13999	24.551988	-578.07537	-822.46833	31.565343	-769.82715	-629.19432	44.36165	-873.61095	-612.50156	21.984629	-849.67804	-712.73517	15.407336	-917.97263
2240	11.2	-647.29031	1011.6057	-907.63644	-527.9989	1019.8574	-665.23057	-777.70276	1057.9591	-768.10128	-721.86045	1069.4443	-657.78135	-566.0977	833.29847	-570.26476	-562.4541	510.56719	-592.8141	-510.29439	781.34777	-600.89417	-567.19066	765.66038	-564.96904	-749.3727	860.03984	-914.76505	-716.49398	787.42507	-929.56648	-781.09123	795.21023	-887.7895	-738.28074	489.00536	-873.1926	-813.10622	359.6492	-870.19112	-780.24439	302.70136	-870.64186	-822.84601	292.09756	-847.19672	-785.50217	69.469948	-832.93375	-604.12381	371.79113	-543.96631	-635.322	311.5419	-550.84928	-575.49007	309.41479	-560.11609	-598.83099	69.091165	-579.07675	-668.70056	30.176535	-595.41304	-465.57934	50.141437	-670.18406	-473.88329	25.580694	-696.97561	-486.1397	24.549465	-578.07269	-822.47149	31.56444	-769.8285	-629.19584	44.362461	-873.60961	-612.50378	21.983056	-849.6772	-712.71942	15.429216	-917.99891
2241	11.205	-647.30995	1011.6027	-907.62637	-528.03771	1019.8596	-665.21256	-777.71051	1057.9666	-768.09271	-721.97612	1069.4859	-657.71734	-566.12251	833.29875	-570.25223	-562.4732	510.55561	-592.79692	-510.31686	781.34924	-600.88494	-567.21279	765.66594	-564.96014	-749.38753	860.04089	-914.76346	-716.51648	787.42365	-929.56229	-781.14635	795.18806	-887.7734	-738.30098	489.00627	-873.1895	-813.12325	359.65053	-870.18729	-780.2574	302.69927	-870.6358	-822.86362	292.09315	-847.17605	-785.50594	69.466826	-832.93515	-604.13256	371.79116	-543.9556	-635.33044	311.53955	-550.84166	-575.49773	309.41278	-560.10499	-598.83179	69.091968	-579.07459	-668.70332	30.190773	-595.39952	-465.5788	50.145203	-670.17815	-473.89481	25.581742	-696.96815	-486.14007	24.547992	-578.06935	-822.47595	31.56402	-769.8287	-629.1973	44.362573	-873.60785	-612.50598	21.98121	-849.67589	-712.70222	15.450667	-918.02432
2242	11.21	-647.32403	1011.6001	-907.61702	-528.08177	1019.8628	-665.19031	-777.71252	1057.974	-768.08983	-722.08001	1069.5201	-657.6671	-566.15526	833.29829	-570.2375	-562.49485	510.54433	-592.77873	-510.34543	781.34926	-600.87132	-567.24246	765.67137	-564.94951	-749.39512	860.0413	-914.76452	-716.53002	787.42112	-929.55972	-781.19191	795.16896	-887.76443	-738.31832	489.00621	-873.18767	-813.13868	359.65128	-870.1853	-780.26792	302.69682	-870.63203	-822.87963	292.08876	-847.15522	-785.51016	69.462875	-832.93719	-604.14419	371.79138	-543.94457	-635.34252	311.5376	-550.83476	-575.50944	309.4109	-560.09426	-598.83335	69.092758	-579.07288	-668.70616	30.202479	-595.38882	-465.57829	50.14985	-670.17197	-473.90858	25.582429	-696.95935	-486.14105	24.547848	-578.0654	-822.48152	31.563945	-769.82824	-629.19865	44.362157	-873.60568	-612.50806	21.979295	-849.67415	-712.68447	15.470305	-918.04739
